<?xml version="1.0" encoding="UTF-8" standalone="no"?>
<!-- Created with Inkscape (http://www.inkscape.org/) -->

<svg
   width="26.458332mm"
   height="26.458332mm"
   viewBox="0 0 26.458333 26.458332"
   version="1.1"
   id="svg5"
   xmlns="http://www.w3.org/2000/svg"
   xmlns:svg="http://www.w3.org/2000/svg">
  <defs
     id="defs2">
    <rect
       x="229.49097"
       y="31.775673"
       width="277.74292"
       height="63.159054"
       id="rect31452" />
  </defs>
  <g
     id="layer1">
    <path
       id="path4923"
       style="fill:#212121;fill-opacity:1;stroke-width:2.61438"
       d="M 15,0 0,15 v 70 l 15,15 H 85 L 100,85 V 15 L 85,0 Z m 17.863281,10 c 0.37087,5.11e-4 0.739033,0.0057 1.103516,0.02344 0.364433,0.01583 0.723965,0.04239 1.082031,0.07617 0.358088,0.03417 0.712744,0.07717 1.064453,0.128907 0.351708,0.05136 0.701546,0.110749 1.046875,0.179687 0.345343,0.06894 0.688392,0.146283 1.027344,0.232422 0.338948,0.08614 0.673287,0.181813 1.005859,0.285156 0.332599,0.103344 0.662089,0.215393 0.988282,0.335938 0.326211,0.120922 0.648918,0.24833 0.96875,0.386719 0.319823,0.138121 0.635775,0.286005 0.949218,0.441406 0.313474,0.155701 0.624573,0.321387 0.931641,0.49414 0.307087,0.172902 0.611414,0.35478 0.912109,0.544922 0.3007,0.190107 0.598252,0.388094 0.892579,0.595703 0.294348,0.207685 0.585092,0.425392 0.873046,0.650391 0.287963,0.224886 0.573894,0.456905 0.855469,0.699219 0.281575,0.242464 0.558786,0.494201 0.833985,0.753906 0.223595,0.210883 0.441275,0.425889 0.654296,0.644531 0.213015,0.218756 0.420608,0.44172 0.623047,0.667969 0.202432,0.22625 0.40189,0.45556 0.59375,0.689453 0.191887,0.233741 0.375344,0.471391 0.556641,0.712891 0.181304,0.241614 0.36057,0.489098 0.53125,0.738281 0.170683,0.249109 0.333992,0.499071 0.49414,0.755859 0.160139,0.2566 0.315288,0.518809 0.464844,0.783203 0.149556,0.264473 0.29464,0.532648 0.433594,0.804688 0.138973,0.271963 0.269173,0.547905 0.392578,0.824219 0.123402,0.2762 0.239789,0.55336 0.347656,0.833984 0.107868,0.280811 0.208486,0.562721 0.300782,0.847656 0.0923,0.285049 0.175228,0.572119 0.251953,0.861329 0.07672,0.289284 0.147794,0.581518 0.208984,0.875 0.06119,0.293517 0.112547,0.588925 0.158203,0.886718 0.04577,0.297751 0.08316,0.596372 0.113282,0.898438 0.02986,0.301992 0.05392,0.605729 0.06836,0.912109 l 0.587891,10.933594 H 45.283204 L 44.85547,29.556642 c -0.0053,-0.178318 -0.01418,-0.356016 -0.0293,-0.53125 -0.01512,-0.175386 -0.03594,-0.347189 -0.06055,-0.519532 -0.02457,-0.172078 -0.05173,-0.344408 -0.08594,-0.513671 -0.03402,-0.169157 -0.07526,-0.335955 -0.119141,-0.501954 -0.04388,-0.166223 -0.09101,-0.331299 -0.144531,-0.49414 -0.05352,-0.162917 -0.112588,-0.322473 -0.175782,-0.482422 -0.06319,-0.159988 -0.132208,-0.317856 -0.205078,-0.47461 -0.07287,-0.156679 -0.149839,-0.313197 -0.232422,-0.466796 -0.08255,-0.153752 -0.167834,-0.305762 -0.255859,-0.455078 -0.08799,-0.149432 -0.178054,-0.296444 -0.271484,-0.441407 -0.09343,-0.145115 -0.19019,-0.289079 -0.289063,-0.429687 C 42.88741,24.1053 42.785948,23.966328 42.681633,23.830079 42.57728,23.6936 42.471115,23.559667 42.36132,23.427735 42.251563,23.295577 42.138666,23.166602 42.02343,23.039063 41.908192,22.911226 41.788641,22.785331 41.667961,22.66211 41.54728,22.538588 41.425019,22.417654 41.29882,22.298829 41.135431,22.144794 40.969918,21.99509 40.802726,21.851563 40.63552,21.707848 40.467872,21.568907 40.296867,21.435548 40.125881,21.302153 39.952097,21.175511 39.777336,21.052735 39.60257,20.930037 39.424604,20.811596 39.246086,20.69922 39.067541,20.586843 38.887417,20.480966 38.70507,20.378907 c -0.182362,-0.101654 -0.366619,-0.200031 -0.552734,-0.291015 -0.186127,-0.09136 -0.374512,-0.176773 -0.564453,-0.257813 -0.189901,-0.08066 -0.380506,-0.156219 -0.574219,-0.226562 -0.193721,-0.07034 -0.390403,-0.135667 -0.587891,-0.195313 -0.197502,-0.06002 -0.396378,-0.112783 -0.597656,-0.162109 -0.201274,-0.04933 -0.404304,-0.09381 -0.609375,-0.132813 -0.205056,-0.03901 -0.41224,-0.07325 -0.621094,-0.101562 -0.208854,-0.02793 -0.418223,-0.05075 -0.630859,-0.06836 -0.212602,-0.01648 -0.428097,-0.03177 -0.644531,-0.03906 -0.216461,-0.0088 -0.434063,-0.0085 -0.654297,-0.0059 -0.220241,0.003 -0.444006,0.0102 -0.667969,0.02539 -0.223997,0.0141 -0.444207,0.03314 -0.664062,0.05469 -0.219848,0.02154 -0.43869,0.05122 -0.654297,0.08398 -0.215626,0.03277 -0.427258,0.06923 -0.638672,0.111328 -0.211367,0.04399 -0.421693,0.09078 -0.628907,0.142578 -0.207204,0.0518 -0.412214,0.106835 -0.615234,0.167969 -0.203002,0.06113 -0.4047,0.128375 -0.603516,0.199219 -0.198821,0.07084 -0.395233,0.146013 -0.589843,0.226562 -0.194619,0.08017 -0.385762,0.165601 -0.576172,0.25586 -0.190401,0.08988 -0.380194,0.183616 -0.566406,0.283203 -0.186225,0.09959 -0.37072,0.205153 -0.552735,0.314453 -0.182018,0.108918 -0.363184,0.223169 -0.541015,0.341797 -0.177804,0.118628 -0.351757,0.241181 -0.525391,0.36914 -0.173635,0.12796 -0.344256,0.260809 -0.513672,0.398438 -0.169421,0.137665 -0.336747,0.280551 -0.501953,0.427734 -0.165203,0.147375 -0.329213,0.300365 -0.490234,0.457031 -0.161038,0.156707 -0.319748,0.318191 -0.476563,0.484376 -0.162247,0.172243 -0.320279,0.343985 -0.472656,0.519531 -0.152364,0.175358 -0.300813,0.354542 -0.44336,0.533203 -0.14254,0.178851 -0.279447,0.358859 -0.412109,0.541016 -0.132646,0.182342 -0.260015,0.365244 -0.382812,0.550781 -0.122801,0.185461 -0.240535,0.371481 -0.353516,0.560547 -0.112944,0.188953 -0.221087,0.380082 -0.324219,0.572265 -0.103086,0.192446 -0.201684,0.38831 -0.294922,0.583985 -0.09324,0.19556 -0.180291,0.392743 -0.263672,0.591796 -0.08338,0.199053 -0.162797,0.397175 -0.236328,0.59961 -0.07353,0.202549 -0.1414,0.409458 -0.205078,0.615234 -0.06368,0.205663 -0.123914,0.411938 -0.177734,0.621094 -0.05382,0.209155 -0.102514,0.420277 -0.146484,0.632812 -0.04396,0.212652 -0.08307,0.426663 -0.117188,0.642579 -0.03413,0.215765 -0.06164,0.433084 -0.08594,0.652343 -0.02423,0.219258 -0.04419,0.441387 -0.05859,0.664063 -0.01429,0.22275 -0.023,0.447815 -0.02734,0.673828 -0.0044,0.225861 -0.0042,0.448185 0.002,0.669922 0.0061,0.221775 0.01665,0.440817 0.0332,0.658203 0.01693,0.2173 0.03901,0.433423 0.06641,0.646484 0.0274,0.213211 0.06145,0.424036 0.09961,0.632813 0.03824,0.208736 0.08006,0.414722 0.128906,0.619141 0.0488,0.204267 0.102613,0.407323 0.162109,0.607421 0.0595,0.200175 0.125123,0.397933 0.195313,0.59375 0.07019,0.195704 0.145722,0.38858 0.226563,0.580079 0.08088,0.191621 0.166287,0.381219 0.257812,0.568359 0.09153,0.187124 0.190797,0.371909 0.292969,0.554687 0.10221,0.182665 0.209397,0.362324 0.322265,0.541016 0.112902,0.178583 0.229963,0.355102 0.353516,0.529297 0.123549,0.174123 0.252482,0.347824 0.386719,0.517578 0.134241,0.170003 0.273037,0.3363 0.417969,0.501953 0.144924,0.165543 0.297534,0.331051 0.453124,0.492188 0.155573,0.161083 0.316142,0.319545 0.482422,0.476562 0.126131,0.118828 0.25303,0.234611 0.382813,0.347656 0.129781,0.113046 0.261099,0.223194 0.394531,0.330078 0.133459,0.106886 0.26913,0.209445 0.40625,0.310547 0.137099,0.100725 0.275252,0.199981 0.416016,0.294922 0.140746,0.09494 0.285274,0.186232 0.429687,0.275391 0.144424,0.08878 0.287492,0.175192 0.435547,0.257812 0.148074,0.08304 0.299438,0.163359 0.451172,0.240235 0.151752,0.07688 0.30555,0.150026 0.460938,0.220703 0.15539,0.07071 0.31242,0.138847 0.470703,0.201172 0.158294,0.06266 0.317352,0.119554 0.478515,0.173828 0.161197,0.05465 0.324188,0.106082 0.488282,0.152344 0.164102,0.04664 0.331047,0.0887 0.498046,0.126953 0.166995,0.03821 0.334015,0.07136 0.503907,0.101562 0.169867,0.0291 0.342854,0.05789 0.515625,0.08008 0.172781,0.02154 0.345814,0.04051 0.521484,0.05469 0.175657,0.01361 0.352688,0.02363 0.53125,0.0293 l 40.101562,1.009765 c 0.30652,-0.0053 0.610926,0.0026 0.914063,0.01367 0.303194,0.01398 0.604493,0.03213 0.904297,0.06055 0.29983,0.0291 0.598099,0.06508 0.894531,0.109375 0.296428,0.04388 0.589756,0.09638 0.882813,0.15625 0.293064,0.05987 0.58726,0.12727 0.876953,0.203125 0.289701,0.07548 0.576967,0.158536 0.863281,0.25 0.286337,0.09146 0.570569,0.189423 0.853516,0.296875 0.282935,0.107074 0.564178,0.22268 0.84375,0.345703 0.279571,0.123024 0.554321,0.251624 0.826172,0.384766 0.27186,0.133115 0.540547,0.272616 0.804687,0.416016 0.264151,0.143507 0.524817,0.291266 0.78125,0.445312 0.256441,0.153978 0.509097,0.312249 0.757813,0.476562 0.248729,0.16441 0.493374,0.333203 0.734374,0.507813 0.241021,0.174463 0.477647,0.356102 0.710938,0.541016 0.233272,0.184894 0.463872,0.373056 0.689453,0.568359 0.225562,0.195326 0.446196,0.397909 0.664063,0.603516 0.278059,0.262601 0.547651,0.527266 0.808593,0.796875 0.260939,0.269556 0.512046,0.543507 0.75586,0.820312 0.243817,0.276851 0.480342,0.555809 0.707031,0.839844 0.226696,0.284145 0.444733,0.574007 0.654297,0.865234 0.209575,0.291062 0.409116,0.584351 0.601562,0.882813 0.192454,0.298393 0.37744,0.600599 0.552735,0.90625 0.175332,0.305688 0.341823,0.61485 0.5,0.927734 0.158211,0.312983 0.308179,0.629142 0.449218,0.949219 0.14109,0.319937 0.274481,0.6434 0.398438,0.970703 0.123931,0.327231 0.238894,0.657692 0.345703,0.992188 0.10681,0.334524 0.205272,0.673896 0.294922,1.015624 0.08969,0.341821 0.171574,0.688188 0.244141,1.03711 0.07257,0.348775 0.134007,0.700489 0.189453,1.05664 0.05545,0.35607 0.104253,0.714743 0.142578,1.078126 0.03821,0.3634 0.06665,0.730987 0.08789,1.101562 0.02116,0.370696 0.0354,0.745234 0.03906,1.123047 0.0042,0.377612 7.99e-4,0.751485 -0.01172,1.123047 -0.01247,0.371678 -0.03543,0.740155 -0.06445,1.105468 -0.0291,0.365367 -0.06736,0.726826 -0.113281,1.085938 -0.04588,0.359055 -0.0996,0.717449 -0.162109,1.070312 -0.06251,0.352706 -0.13371,0.700213 -0.212891,1.046876 -0.07914,0.34677 -0.165908,0.690831 -0.261719,1.03125 -0.09581,0.340458 -0.200059,0.677506 -0.3125,1.011718 -0.112441,0.334148 -0.234172,0.666176 -0.363281,0.994141 -0.129109,0.328214 -0.264403,0.652851 -0.410156,0.974609 -0.145739,0.321865 -0.300481,0.641517 -0.462891,0.957032 -0.162406,0.315551 -0.332701,0.626237 -0.511719,0.935546 -0.179036,0.309241 -0.368764,0.616819 -0.564453,0.919922 -0.195666,0.302892 -0.397037,0.601579 -0.609375,0.898438 -0.212334,0.296957 -0.433127,0.590247 -0.662109,0.880859 -0.228964,0.290646 -0.469213,0.578876 -0.714844,0.863281 -0.245631,0.284334 -0.497489,0.567504 -0.759766,0.845704 -0.264982,0.28112 -0.534393,0.553478 -0.80664,0.818359 -0.272277,0.26468 -0.54861,0.520808 -0.828125,0.769531 -0.279496,0.248655 -0.560877,0.488179 -0.847657,0.720703 -0.286789,0.232592 -0.577046,0.45942 -0.871093,0.675781 -0.294047,0.216189 -0.593213,0.422842 -0.894531,0.623047 -0.301342,0.200126 -0.60548,0.392056 -0.914063,0.576172 -0.308561,0.184063 -0.621645,0.361615 -0.9375,0.529297 -0.315855,0.16766 -0.633919,0.326628 -0.957031,0.478516 -0.32315,0.151597 -0.652039,0.294025 -0.982422,0.429687 -0.330369,0.135572 -0.662341,0.263659 -1,0.382813 -0.337625,0.119508 -0.680467,0.230879 -1.025391,0.333984 -0.344919,0.103106 -0.692738,0.198114 -1.044922,0.285156 -0.352176,0.08704 -0.706958,0.16535 -1.066406,0.236328 -0.359471,0.0706 -0.725073,0.134877 -1.091797,0.189454 -0.366727,0.05458 -0.735383,0.10012 -1.109375,0.138672 -0.374022,0.03742 -0.75156,0.06931 -1.132812,0.0918 -0.381253,0.0223 -0.758084,0.03399 -1.132813,0.04102 -0.374853,0.0034 -0.74888,-9.3e-5 -1.117187,-0.01172 -0.368315,-0.01209 -0.731845,-0.03714 -1.09375,-0.06836 -0.36189,-0.03099 -0.720711,-0.07016 -1.076172,-0.119141 -0.355465,-0.04898 -0.707628,-0.106892 -1.056641,-0.173828 -0.349001,-0.06656 -0.696501,-0.142014 -1.039062,-0.226562 -0.342539,-0.08451 -0.681465,-0.17875 -1.017578,-0.28125 C 60.423652,89.017056 60.09138,88.907147 59.761719,88.787109 59.432031,88.667034 59.106413,88.538287 58.783203,88.400391 58.460016,88.26274 58.139028,88.114663 57.822266,87.958984 57.505503,87.803381 57.193123,87.640202 56.882812,87.466797 56.572476,87.293241 56.264803,87.111166 55.960938,86.919922 55.657063,86.728791 55.356005,86.52739 55.058594,86.318359 54.761183,86.109238 54.466744,85.890864 54.175781,85.664062 53.884833,85.437367 53.597015,85.203595 53.3125,84.958984 53.027977,84.714336 52.746817,84.459648 52.46875,84.197266 52.250898,83.991508 52.036827,83.78225 51.828125,83.568359 51.619419,83.3544 51.416333,83.136238 51.216797,82.914062 51.017276,82.691903 50.82318,82.464794 50.632812,82.234375 c -0.190373,-0.2304 -0.377399,-0.464384 -0.558593,-0.703125 -0.181191,-0.238602 -0.357253,-0.481489 -0.529297,-0.728516 -0.172044,-0.247181 -0.339059,-0.498595 -0.501953,-0.753906 -0.16286,-0.255383 -0.322876,-0.515705 -0.476563,-0.779297 -0.153675,-0.263584 -0.30271,-0.530858 -0.447265,-0.802734 -0.14453,-0.271786 -0.278691,-0.5448 -0.40625,-0.820313 -0.127559,-0.275716 -0.248786,-0.552886 -0.359375,-0.832031 -0.110589,-0.279231 -0.211069,-0.560969 -0.304688,-0.84375 -0.09362,-0.282746 -0.17921,-0.567104 -0.255859,-0.853515 -0.07665,-0.286262 -0.143484,-0.573233 -0.203125,-0.863282 -0.05972,-0.290154 -0.111588,-0.583272 -0.154297,-0.876953 -0.04259,-0.293669 -0.07778,-0.589402 -0.103516,-0.886719 -0.0257,-0.297184 -0.04198,-0.595535 -0.05078,-0.896484 L 45.898438,60.802734 h 8.828124 l 0.289063,9.798828 c 0.0049,0.167358 0.01456,0.334466 0.0293,0.5 0.01474,0.165582 0.03437,0.330155 0.05859,0.494141 0.02457,0.163767 0.05192,0.326268 0.08594,0.488281 0.03402,0.161991 0.07541,0.32384 0.119141,0.484375 0.04369,0.160555 0.09113,0.319606 0.144531,0.478516 0.0534,0.15874 0.11071,0.317612 0.173828,0.474609 0.06312,0.156964 0.132247,0.313306 0.205078,0.46875 0.07283,0.155528 0.149839,0.309 0.232422,0.462891 0.08255,0.153751 0.167873,0.30576 0.255859,0.455078 0.08799,0.149443 0.178055,0.29645 0.271485,0.441406 0.09343,0.145096 0.19019,0.286781 0.289062,0.427735 0.09891,0.140787 0.200335,0.281684 0.304688,0.417968 0.104353,0.136479 0.210517,0.270401 0.320312,0.402344 0.109796,0.13217 0.222653,0.261132 0.337891,0.388672 0.115238,0.127824 0.234788,0.253741 0.355469,0.376953 0.120718,0.123515 0.24298,0.244454 0.36914,0.363281 0.166262,0.156964 0.333851,0.309113 0.503907,0.455079 0.170041,0.145889 0.343765,0.28684 0.517578,0.421875 0.17382,0.135193 0.34974,0.266233 0.527344,0.390625 0.177598,0.124497 0.355737,0.243999 0.537109,0.357421 0.181379,0.113424 0.365633,0.219539 0.550781,0.322266 0.185197,0.102728 0.37162,0.201315 0.560547,0.292969 0.188939,0.09203 0.381493,0.178431 0.574219,0.259765 0.192718,0.08096 0.385537,0.156302 0.582031,0.226563 0.196498,0.07026 0.395441,0.134172 0.595703,0.193359 0.200277,0.05957 0.40338,0.113618 0.607422,0.16211 0.204057,0.04849 0.409359,0.0931 0.617188,0.130859 0.207797,0.0378 0.415344,0.0686 0.626953,0.0957 0.211615,0.02797 0.425248,0.05038 0.640625,0.06641 0.215395,0.01625 0.433184,0.02596 0.652343,0.03125 0.219137,0.0049 0.441044,0.0027 0.664063,0 0.222916,-0.0057 0.447102,-0.01538 0.673828,-0.03125 0.226696,-0.01814 0.451116,-0.03939 0.673828,-0.06445 0.22269,-0.02532 0.443452,-0.05593 0.66211,-0.0918 0.218606,-0.03666 0.435766,-0.07747 0.65039,-0.123046 0.214602,-0.04558 0.428077,-0.0951 0.638672,-0.150391 0.210595,-0.05529 0.416481,-0.116633 0.623047,-0.181641 0.206551,-0.06501 0.412701,-0.134225 0.615234,-0.208984 0.202545,-0.07472 0.403058,-0.155762 0.601563,-0.240234 0.198501,-0.08443 0.395368,-0.173431 0.589844,-0.267578 0.194455,-0.09415 0.387683,-0.192976 0.578124,-0.296876 0.190451,-0.10386 0.378036,-0.212597 0.564454,-0.326171 0.186406,-0.113575 0.370334,-0.232143 0.552734,-0.355469 0.1824,-0.123288 0.362663,-0.251394 0.541016,-0.384766 0.178356,-0.133001 0.354967,-0.271253 0.529296,-0.414062 0.17435,-0.142715 0.347315,-0.290629 0.517579,-0.44336 0.170305,-0.152806 0.339594,-0.310435 0.505859,-0.472656 0.166299,-0.162142 0.328021,-0.327869 0.490234,-0.5 0.156813,-0.166412 0.310068,-0.335852 0.457032,-0.505859 0.146948,-0.16989 0.288709,-0.343713 0.425781,-0.517578 0.137083,-0.173783 0.269254,-0.348071 0.396484,-0.525391 0.127219,-0.177638 0.24788,-0.355836 0.365235,-0.537109 0.117354,-0.181153 0.2304,-0.365698 0.33789,-0.550782 0.10749,-0.185007 0.210969,-0.369987 0.308594,-0.558593 0.09766,-0.188523 0.191498,-0.381652 0.279297,-0.574219 0.08776,-0.192378 0.170151,-0.383943 0.248047,-0.580078 0.0779,-0.196233 0.150718,-0.395887 0.21875,-0.595703 0.06803,-0.199748 0.131286,-0.401934 0.189453,-0.605469 0.05817,-0.203603 0.111816,-0.407939 0.160156,-0.615235 0.04834,-0.207117 0.09051,-0.415979 0.128906,-0.626953 0.03844,-0.210973 0.07303,-0.423976 0.101563,-0.638671 0.02835,-0.214829 0.05164,-0.431938 0.07031,-0.650391 0.01852,-0.218343 0.03221,-0.437984 0.04102,-0.660156 0.0091,-0.222199 0.01285,-0.446015 0.01172,-0.671875 -9.19e-4,-0.225714 -0.0086,-0.450471 -0.01953,-0.671875 -0.01096,-0.221254 -0.02736,-0.441301 -0.04883,-0.658203 -0.02154,-0.216794 -0.04649,-0.432088 -0.07813,-0.644532 -0.03137,-0.212334 -0.06776,-0.420949 -0.109375,-0.628906 -0.04161,-0.207874 -0.08888,-0.413724 -0.140625,-0.617188 -0.05178,-0.203413 -0.107975,-0.404508 -0.169922,-0.603515 -0.06191,-0.198954 -0.129096,-0.395327 -0.201171,-0.589844 -0.07208,-0.194532 -0.150218,-0.386152 -0.232422,-0.576172 C 79.992014,61.985709 79.904872,61.796884 79.8125,61.611328 79.720166,61.425716 79.623985,61.243615 79.521484,61.0625 79.418984,60.881347 79.311886,60.700129 79.199219,60.523438 79.086551,60.346745 78.9685,60.172116 78.845703,60 c -0.122797,-0.172233 -0.251799,-0.340191 -0.384765,-0.507812 -0.132964,-0.167774 -0.268987,-0.332913 -0.41211,-0.496094 -0.143131,-0.163314 -0.292041,-0.323701 -0.445312,-0.482422 -0.153222,-0.158476 -0.313147,-0.314545 -0.476563,-0.46875 -0.126123,-0.119206 -0.252362,-0.23732 -0.382812,-0.34961 -0.13047,-0.11225 -0.263652,-0.220836 -0.398438,-0.326171 -0.134816,-0.105714 -0.272962,-0.207844 -0.412109,-0.306641 -0.139125,-0.0988 -0.278382,-0.192936 -0.421875,-0.285156 -0.143471,-0.09184 -0.289706,-0.180321 -0.4375,-0.265625 -0.147818,-0.0853 -0.299046,-0.167707 -0.451172,-0.246094 -0.152126,-0.07835 -0.306441,-0.153176 -0.462891,-0.224609 -0.156434,-0.07181 -0.315789,-0.139807 -0.476562,-0.205078 -0.160781,-0.06489 -0.322052,-0.126712 -0.484375,-0.183594 -0.162293,-0.05688 -0.324459,-0.11125 -0.488281,-0.160156 -0.163843,-0.04891 -0.328825,-0.09383 -0.494141,-0.134766 -0.165354,-0.04093 -0.331211,-0.07642 -0.498047,-0.109375 -0.166828,-0.03288 -0.333628,-0.06095 -0.501953,-0.08594 -0.16834,-0.02532 -0.337964,-0.04553 -0.507813,-0.0625 -0.169889,-0.01776 -0.340404,-0.03052 -0.511718,-0.03906 -0.171402,-0.0102 -0.342746,-0.01103 -0.515625,-0.01367 l -40.09961,-1.009766 c -0.30113,-0.0025 -0.601941,-0.01153 -0.90039,-0.0293 -0.298436,-0.01776 -0.594844,-0.0464 -0.890625,-0.08008 -0.295764,-0.03364 -0.591657,-0.07534 -0.884766,-0.125 -0.293091,-0.04966 -0.584571,-0.106602 -0.875,-0.171875 -0.290408,-0.06527 -0.57943,-0.139518 -0.867188,-0.220703 -0.287772,-0.08122 -0.574302,-0.168831 -0.859374,-0.265625 -0.28509,-0.09679 -0.569157,-0.20171 -0.851563,-0.314453 -0.282418,-0.112592 -0.562073,-0.234891 -0.841797,-0.363281 -0.279734,-0.128315 -0.558078,-0.260311 -0.830078,-0.398438 -0.272001,-0.13799 -0.538466,-0.281685 -0.802734,-0.429687 -0.264269,-0.147704 -0.524718,-0.299591 -0.78125,-0.457031 -0.256532,-0.15738 -0.509019,-0.321302 -0.757813,-0.488282 -0.248799,-0.167055 -0.49526,-0.338849 -0.736328,-0.515625 -0.241067,-0.176727 -0.477612,-0.356793 -0.710937,-0.542968 -0.233334,-0.186399 -0.463853,-0.378251 -0.689454,-0.574219 -0.2256,-0.196078 -0.446196,-0.395953 -0.664062,-0.601563 -0.27806,-0.262605 -0.547997,-0.529019 -0.808594,-0.798828 -0.260615,-0.269926 -0.510778,-0.543107 -0.753906,-0.820312 -0.243133,-0.27724 -0.477467,-0.55724 -0.703125,-0.841797 -0.225651,-0.284557 -0.442196,-0.5752 -0.650391,-0.867188 -0.208207,-0.29187 -0.40693,-0.587342 -0.597656,-0.886718 -0.190726,-0.299188 -0.373627,-0.601432 -0.546875,-0.908203 -0.173254,-0.306898 -0.338343,-0.617479 -0.494141,-0.931641 -0.155773,-0.314192 -0.303088,-0.63157 -0.441406,-0.953125 -0.138327,-0.321525 -0.267824,-0.647577 -0.388672,-0.976563 -0.120846,-0.328819 -0.232567,-0.661672 -0.335937,-0.998047 -0.103367,-0.33615 -0.197276,-0.675764 -0.283203,-1.019531 -0.08593,-0.343861 -0.163975,-0.691808 -0.232422,-1.042969 -0.06845,-0.351159 -0.128719,-0.705901 -0.179688,-1.064453 -0.05097,-0.358476 -0.09151,-0.721946 -0.125,-1.08789 -0.03337,-0.365796 -0.06013,-0.734087 -0.07617,-1.107422 C 10.00527,33.780815 9.9985638,33.402211 10,33.021484 c 0.0014,-0.380725 0.01134,-0.75638 0.0293,-1.130859 0.0178,-0.374476 0.04377,-0.746969 0.07813,-1.115234 0.03436,-0.368153 0.07612,-0.733688 0.126953,-1.095703 0.05083,-0.362208 0.110421,-0.720367 0.177734,-1.076172 0.06731,-0.355881 0.142775,-0.707047 0.226563,-1.056641 0.08379,-0.349557 0.177114,-0.697672 0.277344,-1.041016 0.10027,-0.34323 0.20751,-0.682399 0.324218,-1.019531 0.116742,-0.337285 0.24181,-0.673023 0.375,-1.003906 0.133187,-0.330958 0.274166,-0.65775 0.423828,-0.982422 0.149655,-0.324635 0.308473,-0.644468 0.47461,-0.962891 0.166148,-0.318309 0.340821,-0.633139 0.523437,-0.945312 0.182619,-0.312363 0.373173,-0.621735 0.572266,-0.927735 0.199099,-0.306036 0.407482,-0.610405 0.623047,-0.910156 0.215581,-0.299713 0.439839,-0.597086 0.671875,-0.890625 0.232024,-0.293387 0.470243,-0.583805 0.71875,-0.871093 0.248495,-0.287441 0.504546,-0.570485 0.769531,-0.851563 0.262269,-0.278012 0.52937,-0.548622 0.798828,-0.810547 0.269468,-0.261963 0.541718,-0.51607 0.81836,-0.761719 0.27664,-0.245535 0.557974,-0.483479 0.841796,-0.71289 0.283803,-0.229486 0.570322,-0.448975 0.861329,-0.66211 0.291012,-0.213059 0.586572,-0.418375 0.884765,-0.615234 0.298174,-0.19701 0.600881,-0.38571 0.90625,-0.566406 0.305386,-0.180582 0.613221,-0.353423 0.925782,-0.517578 0.312543,-0.164535 0.627527,-0.32068 0.947265,-0.46875 0.319756,-0.148109 0.643785,-0.288018 0.970703,-0.419922 0.326929,-0.131679 0.658087,-0.255463 0.992188,-0.371094 0.334087,-0.115631 0.670431,-0.223061 1.011718,-0.322266 0.341299,-0.0992 0.686692,-0.190284 1.035157,-0.273437 0.348461,-0.08315 0.700999,-0.157508 1.05664,-0.22461 0.355673,-0.06673 0.715286,-0.125483 1.078125,-0.175781 0.362835,-0.05068 0.727636,-0.0927 1.097657,-0.126953 0.370027,-0.03349 0.743889,-0.0603 1.121093,-0.07813 v -0.0078 c 0.377185,-0.0186 0.752181,-0.025889 1.123039,-0.0254 z m 52.6875,0 a 4.4485001,4.4485001 0 0 1 0.697266,0.05469 4.4485001,4.4485001 0 0 1 0.677734,0.162109 4.4485001,4.4485001 0 0 1 0.644531,0.267578 4.4485001,4.4485001 0 0 1 0.595704,0.365234 4.4485001,4.4485001 0 0 1 0.53125,0.453125 4.4485001,4.4485001 0 0 1 0.453125,0.53125 4.4485001,4.4485001 0 0 1 0.365234,0.595704 4.4485001,4.4485001 0 0 1 0.267578,0.644531 4.4485001,4.4485001 0 0 1 0.162109,0.677734 4.4485001,4.4485001 0 0 1 0.05469,0.697266 4.4485001,4.4485001 0 0 1 -0.337891,1.701172 4.4485001,4.4485001 0 0 1 -0.964843,1.443359 4.4485001,4.4485001 0 0 1 -1.44336,0.964844 4.4485001,4.4485001 0 0 1 -1.703125,0.33789 4.4485001,4.4485001 0 0 1 -1.701172,-0.33789 4.4485001,4.4485001 0 0 1 -1.443359,-0.964844 4.4485001,4.4485001 0 0 1 -0.964844,-1.443359 4.4485001,4.4485001 0 0 1 -0.33789,-1.701172 4.4485001,4.4485001 0 0 1 0.33789,-1.703125 4.4485001,4.4485001 0 0 1 0.964844,-1.44336 4.4485001,4.4485001 0 0 1 1.443359,-0.964843 A 4.4485001,4.4485001 0 0 1 85.550781,10 Z M 14.449219,81.103516 a 4.4485,4.4485 0 0 1 0.367187,0.01563 4.4485,4.4485 0 0 1 0.365235,0.04492 4.4485,4.4485 0 0 1 0.359375,0.07422 4.4485,4.4485 0 0 1 0.351562,0.105469 4.4485,4.4485 0 0 1 0.34375,0.134766 4.4485,4.4485 0 0 1 0.330078,0.160156 4.4485,4.4485 0 0 1 0.314453,0.189453 4.4485,4.4485 0 0 1 0.300782,0.212891 4.4485,4.4485 0 0 1 0.279297,0.238281 4.4485,4.4485 0 0 1 0.259765,0.259765 4.4485,4.4485 0 0 1 0.238281,0.279297 4.4485,4.4485 0 0 1 0.212891,0.300782 4.4485,4.4485 0 0 1 0.189453,0.314453 4.4485,4.4485 0 0 1 0.160156,0.330078 4.4485,4.4485 0 0 1 0.134766,0.34375 4.4485,4.4485 0 0 1 0.105469,0.351562 4.4485,4.4485 0 0 1 0.07422,0.359375 4.4485,4.4485 0 0 1 0.04492,0.365235 4.4485,4.4485 0 0 1 0.01563,0.367187 4.4485,4.4485 0 0 1 -0.111328,0.990235 4.4485,4.4485 0 0 1 -0.328125,0.941406 4.4485,4.4485 0 0 1 -0.53125,0.841797 4.4485,4.4485 0 0 1 -0.703125,0.705078 4.4485,4.4485 0 0 1 -0.84375,0.529297 A 4.4485,4.4485 0 0 1 15.4375,89.888672 4.4485,4.4485 0 0 1 14.449219,90 4.4485,4.4485 0 0 1 13.458984,89.888672 4.4485,4.4485 0 0 1 12.517578,89.558594 4.4485,4.4485 0 0 1 11.675781,89.029297 4.4485,4.4485 0 0 1 10.970703,88.324219 4.4485,4.4485 0 0 1 10.441406,87.482422 4.4485,4.4485 0 0 1 10.111328,86.541016 4.4485,4.4485 0 0 1 10,85.550781 4.4485,4.4485 0 0 1 10.111328,84.5625 a 4.4485,4.4485 0 0 1 0.330078,-0.941406 4.4485,4.4485 0 0 1 0.529297,-0.84375 4.4485,4.4485 0 0 1 0.705078,-0.703125 4.4485,4.4485 0 0 1 0.841797,-0.53125 4.4485,4.4485 0 0 1 0.941406,-0.328125 4.4485,4.4485 0 0 1 0.990235,-0.111328 z"
       transform="scale(0.26458333)" />
  </g>
  <style
     type="text/css"
     id="style11462">
	.st0{fill:url(#SVGID_1_);}
	.st1{fill:url(#SVGID_2_);}
	.st2{fill-rule:evenodd;clip-rule:evenodd;fill:#29ABE2;}
</style>
</svg>
